<?xml version="1.0" standalone="no"?>
<!DOCTYPE svg PUBLIC "-//W3C//DTD SVG 20010904//EN"
 "http://www.w3.org/TR/2001/REC-SVG-20010904/DTD/svg10.dtd">
<svg version="1.0" xmlns="http://www.w3.org/2000/svg"
 width="1600.000000pt" height="1600.000000pt" viewBox="0 0 1600.000000 1600.000000"
 preserveAspectRatio="xMidYMid meet">
<metadata>
Created by potrace 1.14, written by Peter Selinger 2001-2017
</metadata>
<g transform="translate(0.000000,1600.000000) scale(0.100000,-0.100000)"
fill="#000000" stroke="none">
<path d="M0 8005 l0 -7995 7993 2 7992 3 3 7993 2 7992 -7995 0 -7995 0 0
-7995z m10300 3084 c0 -6 7 -17 15 -25 8 -9 15 -24 15 -35 0 -10 7 -19 15 -19
8 0 15 -9 15 -19 0 -11 6 -26 13 -33 8 -7 17 -26 21 -41 3 -15 11 -27 16 -27
6 0 10 -8 10 -18 0 -10 9 -25 20 -35 11 -9 20 -25 20 -36 0 -10 8 -22 18 -26
16 -7 15 -8 -3 -15 -11 -5 -365 -9 -787 -9 -676 -1 -768 -3 -768 -16 0 -8 7
-15 15 -15 9 0 18 -7 21 -15 4 -8 12 -15 20 -15 8 0 14 -7 14 -15 0 -9 9 -15
23 -15 12 0 30 -8 39 -17 25 -28 61 -53 75 -53 7 0 13 -7 13 -15 0 -8 9 -15
20 -15 11 0 20 -7 20 -15 0 -8 7 -15 15 -15 9 0 18 -6 21 -14 3 -8 16 -17 30
-20 21 -6 24 -12 24 -51 0 -33 -4 -45 -15 -45 -10 0 -15 -10 -15 -27 0 -16 -7
-37 -15 -47 -8 -11 -15 -35 -15 -53 l0 -33 798 -2 797 -3 3 -25 c2 -13 10 -29
18 -35 8 -6 16 -20 17 -33 0 -12 6 -22 13 -22 6 0 14 -14 18 -31 3 -17 10 -28
15 -25 5 3 12 -6 15 -20 4 -15 14 -33 21 -41 8 -8 15 -23 15 -34 0 -10 7 -19
15 -19 10 0 15 -10 15 -30 0 -20 5 -30 15 -30 8 0 15 -9 15 -20 0 -11 7 -20
15 -20 10 0 15 -10 15 -30 0 -20 5 -30 15 -30 8 0 15 -9 15 -20 0 -11 9 -28
20 -37 11 -10 20 -27 20 -39 0 -12 7 -24 15 -28 8 -3 15 -12 15 -20 0 -7 7
-16 15 -20 8 -3 15 -17 15 -31 0 -16 6 -25 15 -25 10 0 15 -10 15 -30 0 -17 6
-33 14 -36 8 -3 18 -19 21 -35 4 -16 13 -29 21 -29 8 0 14 -10 14 -26 0 -14 4
-23 10 -19 6 4 13 -7 16 -24 4 -17 13 -31 20 -31 9 0 14 -11 14 -30 0 -20 5
-30 15 -30 8 0 15 -9 15 -19 0 -11 7 -26 15 -35 8 -8 15 -20 15 -26 0 -6 6
-13 14 -16 8 -3 17 -17 21 -31 3 -14 13 -32 20 -40 8 -8 15 -23 15 -34 0 -10
7 -19 15 -19 8 0 15 -9 15 -19 0 -11 7 -26 15 -35 8 -8 15 -21 15 -29 0 -8 6
-17 14 -20 7 -3 16 -18 20 -32 4 -15 14 -34 21 -42 8 -8 15 -27 15 -42 0 -37
-11 -39 -218 -39 -90 0 -165 -2 -168 -5 -3 -2 2 -11 10 -20 8 -8 18 -26 21
-40 4 -14 13 -28 21 -31 8 -3 14 -12 14 -21 0 -8 7 -15 15 -15 10 0 15 -10 15
-30 0 -20 5 -30 15 -30 10 0 15 -10 15 -30 0 -20 5 -30 15 -30 8 0 15 -8 15
-18 0 -17 8 -30 50 -79 6 -7 13 -26 16 -43 4 -16 10 -30 15 -30 5 0 9 -4 9
-10 0 -5 -109 -10 -274 -12 -241 -3 -321 -10 -278 -25 6 -3 12 -11 12 -19 0
-8 7 -17 15 -20 8 -3 17 -21 21 -40 3 -19 12 -34 20 -34 9 0 14 -11 14 -30 0
-19 5 -30 14 -30 7 0 16 -15 20 -32 5 -26 9 -30 16 -18 7 11 10 8 10 -15 l0
-30 -2247 3 c-1236 1 -2249 4 -2251 7 -3 2 -7 28 -10 57 -3 29 -10 56 -16 60
-5 4 -12 40 -14 80 -3 48 -9 76 -18 81 -10 5 -14 28 -14 72 0 41 -5 69 -14 77
-8 9 -15 43 -18 87 -2 40 -9 75 -15 79 -6 4 -12 34 -14 67 -3 51 -1 60 14 63
14 3 17 -4 17 -32 0 -25 4 -36 15 -36 10 0 15 -10 15 -29 0 -16 6 -31 15 -35
9 -3 15 -18 15 -35 0 -16 6 -36 14 -43 7 -8 17 -29 21 -46 3 -18 10 -32 15
-32 5 0 12 -14 15 -32 4 -17 14 -38 21 -46 8 -7 14 -26 14 -42 0 -16 7 -30 15
-34 9 -3 15 -18 15 -36 0 -20 5 -30 15 -30 10 0 15 -10 15 -31 0 -22 5 -32 20
-36 11 -3 20 -9 20 -14 0 -5 854 -9 2010 -9 l2010 0 0 30 c0 17 -4 30 -9 30
-5 0 -12 14 -16 30 -4 17 -12 30 -20 30 -7 0 -15 9 -18 20 -5 20 -14 20 -1951
20 l-1946 0 0 25 c0 14 -6 28 -14 31 -8 3 -17 21 -21 40 -3 19 -10 32 -14 29
-10 -5 -21 28 -21 61 0 12 -7 24 -15 28 -9 3 -15 18 -15 36 0 20 -5 30 -15 30
-10 0 -15 10 -15 30 0 16 -6 33 -13 37 -8 4 -17 26 -20 48 -4 22 -11 41 -17
43 -5 2 -10 12 -10 22 0 10 -6 25 -14 32 -7 8 -17 29 -21 46 -3 18 -10 32 -15
32 -5 0 -12 14 -15 32 -4 17 -14 38 -21 46 -8 7 -14 24 -14 37 0 13 -7 30 -15
39 -8 8 -16 26 -17 40 -1 14 -8 26 -15 26 -7 0 -14 9 -14 20 -3 36 -4 41 -16
48 -6 4 -15 21 -19 37 -4 16 -13 36 -21 43 -7 7 -13 29 -13 48 0 24 -5 34 -15
34 -10 0 -15 10 -15 30 0 20 -5 30 -15 30 -10 0 -15 10 -15 30 0 20 5 30 15
30 9 0 15 -9 15 -25 0 -16 6 -25 15 -25 8 0 15 -9 15 -20 0 -11 7 -20 15 -20
8 0 15 -9 15 -20 0 -11 9 -28 20 -37 11 -10 20 -23 20 -30 0 -7 4 -13 9 -13 5
0 12 -13 16 -29 3 -16 13 -32 21 -35 8 -3 14 -17 14 -31 0 -16 6 -25 15 -25 8
0 15 -9 15 -20 0 -11 6 -20 14 -20 8 0 17 -12 20 -26 4 -14 11 -31 17 -37 41
-50 49 -62 49 -79 0 -10 7 -18 15 -18 10 0 15 -10 15 -30 0 -20 5 -30 15 -30
8 0 15 -9 15 -20 0 -12 7 -20 18 -20 14 0 15 -2 2 -10 -10 -6 -11 -10 -2 -10
6 0 12 -7 12 -15 0 -9 6 -18 14 -21 8 -3 18 -19 21 -35 4 -16 13 -29 21 -29 8
0 14 -9 14 -20 0 -11 6 -20 14 -20 9 0 16 -12 18 -27 2 -16 8 -27 16 -25 6 1
12 -7 12 -18 0 -11 7 -23 15 -26 8 -4 15 -12 15 -19 0 -8 6 -20 13 -27 7 -7
16 -21 20 -30 3 -10 13 -18 22 -18 8 0 15 -4 15 -10 0 -7 703 -10 2089 -10
1896 0 2089 1 2095 16 12 32 -1 60 -46 102 -10 9 -18 29 -18 44 0 18 -5 28
-15 28 -9 0 -15 9 -15 25 0 14 -7 28 -15 31 -8 4 -15 12 -15 20 0 10 -14 14
-47 14 -27 0 -907 2 -1958 3 l-1910 2 -22 22 c-12 12 -25 34 -29 48 -3 14 -12
25 -19 25 -8 0 -15 12 -17 28 -2 15 -8 26 -15 24 -7 -1 -13 7 -13 18 0 11 -6
20 -14 20 -8 0 -17 15 -20 35 -4 19 -11 35 -16 35 -6 0 -10 7 -10 15 0 8 -6
15 -14 15 -8 0 -17 13 -21 29 -3 16 -13 32 -21 35 -8 3 -14 10 -14 16 0 6 -7
18 -15 26 -8 9 -15 24 -15 35 0 10 -6 19 -12 19 -7 0 -23 23 -36 50 -12 28
-26 50 -31 50 -5 0 -12 14 -16 30 -4 17 -13 30 -21 30 -8 0 -14 9 -14 20 0 11
-4 20 -10 20 -5 0 -12 11 -16 25 -3 14 -12 29 -20 33 -7 4 -15 18 -17 32 -2
13 -9 26 -15 28 -7 2 -12 10 -12 18 0 8 -6 14 -14 14 -8 0 -17 14 -21 30 -4
17 -11 30 -16 30 -5 0 -13 8 -16 18 -4 9 -13 23 -20 30 -7 7 -13 22 -13 33 0
10 -7 19 -15 19 -8 0 -15 9 -15 19 0 11 -6 26 -13 33 -7 7 -16 21 -20 31 -3 9
-11 17 -16 17 -5 0 -12 14 -16 30 -4 17 -13 30 -21 30 -8 0 -14 9 -14 20 0 11
-4 20 -9 20 -5 0 -14 14 -20 30 -5 17 -14 30 -19 30 -6 0 -13 11 -16 25 -4 14
-11 23 -16 20 -6 -3 -10 5 -10 19 0 16 -6 26 -14 26 -8 0 -17 15 -20 35 -4 20
-11 33 -17 30 -5 -4 -12 2 -16 12 -4 10 -13 24 -20 31 -7 7 -13 22 -13 33 0
10 -7 19 -15 19 -8 0 -15 9 -15 19 0 11 -7 26 -15 35 -8 8 -15 22 -15 30 0 9
-6 16 -14 16 -8 0 -17 13 -21 29 -3 16 -13 32 -21 35 -8 3 -14 10 -14 16 0 6
-7 18 -15 26 -8 9 -15 24 -15 35 0 10 -6 19 -14 19 -8 0 -16 10 -18 23 -2 12
-9 21 -16 20 -7 -2 -12 8 -12 22 0 14 -6 28 -14 31 -8 3 -18 19 -21 35 -4 16
-13 29 -21 29 -8 0 -14 6 -14 14 0 8 -7 16 -15 20 -8 3 -15 17 -15 31 0 16 -6
25 -15 25 -8 0 -15 9 -15 20 0 11 -5 20 -11 20 -5 0 -7 5 -4 10 3 6 1 10 -4
10 -6 0 -11 9 -11 20 0 11 -6 20 -14 20 -8 0 -17 13 -21 29 -3 16 -13 32 -21
35 -8 3 -14 12 -14 20 0 7 -7 16 -15 20 -8 3 -15 17 -15 31 0 16 -6 25 -15 25
-8 0 -15 6 -15 14 0 8 -3 21 -6 30 -6 15 204 16 2335 16 1658 0 2341 -3 2341
-11z m-4870 -179 c0 -16 -4 -30 -10 -30 -5 0 -10 14 -10 30 0 17 5 30 10 30 6
0 10 -13 10 -30z m-30 -75 c0 -33 -4 -45 -15 -45 -11 0 -15 -11 -15 -41 0 -22
-4 -38 -9 -35 -11 7 -21 -18 -21 -54 0 -16 -6 -33 -13 -37 -8 -4 -17 -26 -20
-47 -4 -22 -10 -42 -15 -45 -5 -3 -12 -24 -15 -45 -4 -22 -10 -42 -15 -45 -5
-3 -13 -22 -17 -41 -4 -19 -11 -37 -16 -40 -10 -7 -17 -41 -18 -83 -1 -16 -5
-26 -10 -23 -11 7 -21 -18 -21 -55 0 -19 -5 -29 -15 -29 -11 0 -15 -11 -15
-40 0 -22 -6 -42 -13 -47 -8 -4 -17 -26 -20 -47 -4 -22 -11 -42 -16 -45 -6 -4
-13 -26 -17 -49 -3 -23 -10 -39 -14 -37 -10 6 -20 -20 -20 -52 0 -13 -7 -31
-15 -39 -8 -9 -15 -30 -15 -49 0 -20 -6 -35 -15 -39 -10 -3 -15 -19 -15 -46 0
-27 -5 -43 -15 -46 -10 -4 -15 -20 -15 -50 0 -32 -4 -44 -14 -44 -10 0 -17
-16 -21 -44 -4 -25 -13 -47 -21 -50 -8 -3 -14 -19 -14 -36 0 -17 -7 -38 -15
-46 -8 -9 -15 -30 -15 -49 0 -18 -5 -35 -10 -37 -6 -2 -13 -21 -16 -43 -4 -22
-12 -44 -19 -50 -6 -5 -15 -28 -18 -49 -3 -22 -11 -42 -16 -45 -5 -3 -12 -26
-16 -51 -4 -25 -13 -49 -21 -53 -8 -5 -14 -24 -14 -47 0 -29 -4 -40 -15 -40
-10 0 -15 -11 -15 -35 0 -24 -5 -35 -15 -35 -10 0 -15 -10 -15 -30 l0 -30 -60
0 c-45 0 -62 4 -66 15 -4 10 -21 15 -53 16 -41 0 -101 16 -76 19 6 1 -1 5 -13
11 -22 8 -26 36 -4 32 5 -1 13 13 16 32 4 19 11 35 15 35 5 0 12 12 16 27 3
15 12 31 18 35 12 7 13 12 16 48 0 11 8 20 16 20 10 0 15 10 15 30 0 20 5 30
15 30 10 0 15 10 15 30 0 17 6 33 14 36 8 3 18 19 21 35 4 16 11 29 15 29 5 0
12 16 16 35 3 20 12 35 20 35 9 0 14 11 14 30 0 20 5 30 15 30 10 0 15 10 15
30 0 20 5 30 15 30 10 0 15 10 15 30 0 18 6 33 15 36 8 4 15 11 15 18 0 6 9
28 20 49 11 20 20 44 20 52 0 8 4 15 10 15 5 0 13 12 16 27 4 15 13 34 21 41
7 7 13 22 13 32 0 10 7 20 15 24 9 3 15 18 15 36 0 16 5 30 11 30 5 0 7 5 4
10 -3 6 -2 10 4 10 5 0 12 13 16 29 3 16 13 32 21 35 8 3 14 15 14 26 0 11 4
20 10 20 5 0 13 12 16 28 4 15 15 43 26 62 10 19 18 40 18 47 0 7 5 13 10 13
6 0 10 9 10 19 0 11 6 26 14 33 7 8 17 29 21 46 3 18 10 32 15 32 5 0 11 13
15 29 3 16 13 32 21 35 8 3 14 19 14 36 0 20 5 30 15 30 10 0 15 10 15 30 0
20 5 30 15 30 10 0 15 10 15 30 0 19 5 30 14 30 8 0 17 15 20 35 4 19 11 35
16 35 4 0 11 13 15 29 3 16 13 32 21 35 8 3 14 19 14 36 0 20 5 30 15 30 10 0
15 10 15 30 0 20 5 30 15 30 10 0 15 10 15 30 0 20 5 30 15 30 10 0 15 11 15
35 0 24 5 35 15 35 11 0 15 -12 15 -45z m260 -1025 l0 -150 -49 0 c-27 0 -62
3 -79 6 l-30 6 -1 134 c-2 155 -4 152 102 153 l57 1 0 -150z m255 0 l0 -144
-44 -4 c-24 -2 -59 -1 -77 3 l-34 6 0 139 c0 158 -6 149 95 147 l60 -2 0 -145z
m-705 -101 c0 -28 -4 -39 -15 -39 -10 0 -15 -10 -15 -31 0 -17 -7 -37 -15 -45
-8 -9 -15 -33 -15 -54 0 -21 -7 -45 -15 -53 -8 -8 -18 -35 -21 -59 -4 -23 -11
-46 -17 -49 -5 -4 -12 -27 -14 -53 -4 -30 -10 -46 -19 -46 -10 0 -14 -13 -14
-44 0 -30 -5 -46 -15 -50 -10 -4 -15 -20 -15 -51 0 -33 -4 -45 -15 -45 -11 0
-15 -11 -15 -39 0 -22 -7 -46 -15 -55 -8 -8 -15 -31 -15 -51 0 -21 -6 -38 -14
-41 -7 -3 -16 -27 -20 -54 -4 -27 -11 -50 -17 -52 -6 -2 -13 -24 -16 -48 -4
-25 -12 -51 -20 -58 -7 -7 -13 -28 -13 -45 0 -21 -9 -40 -25 -55 -20 -19 -33
-23 -77 -20 -41 2 -54 7 -56 21 -2 10 3 17 11 17 9 0 16 15 20 42 3 23 13 45
21 50 9 5 16 20 16 34 0 14 7 32 15 40 8 9 15 24 15 35 0 11 7 27 15 35 8 9
15 29 15 45 0 17 6 32 15 35 9 4 15 19 15 35 0 18 5 29 14 29 8 0 17 15 20 34
4 19 11 36 17 38 5 2 12 21 16 43 3 22 12 44 20 48 7 4 13 21 13 37 0 18 5 30
13 30 7 0 14 12 15 26 1 14 9 32 17 40 8 9 15 26 15 39 0 13 7 30 15 39 8 8
15 26 15 41 0 14 6 28 14 31 8 3 17 20 20 39 4 18 11 35 17 37 6 2 13 22 16
46 3 26 11 42 19 42 9 0 14 11 14 30 0 18 6 33 15 36 8 4 15 16 15 28 0 34 12
66 21 60 5 -3 9 -23 9 -45z m450 -279 l0 -151 -77 3 -78 3 0 140 0 140 65 6
c36 3 71 6 78 7 9 2 12 -34 12 -148z m255 -1 l0 -144 -77 -3 -78 -3 0 145 0
145 68 3 c37 2 72 3 77 3 6 -1 10 -57 10 -146z m-615 111 c0 -16 -4 -30 -10
-30 -5 0 -10 14 -10 30 0 17 5 30 10 30 6 0 10 -13 10 -30z m960 11 c0 -5 3
-16 6 -25 4 -11 1 -16 -10 -16 -10 0 -16 9 -16 25 0 14 5 25 10 25 6 0 10 -4
10 -9z m-987 -102 c7 -25 -3 -92 -14 -99 -5 -3 -12 -39 -15 -80 -4 -41 -12
-78 -18 -82 -5 -4 -12 -40 -14 -80 -3 -48 -9 -76 -18 -81 -10 -5 -14 -28 -14
-72 0 -40 -4 -65 -12 -67 -7 -3 -15 -35 -19 -77 -3 -40 -11 -76 -16 -80 -6 -3
-13 -37 -17 -76 -4 -38 -11 -72 -17 -75 -5 -4 -12 -43 -16 -88 -3 -45 -10 -79
-14 -76 -4 2 -11 -11 -15 -31 -6 -35 -7 -35 -56 -35 l-50 0 6 31 c3 17 6 47 6
65 0 24 5 34 15 34 11 0 15 12 15 46 0 27 6 51 15 60 8 9 15 33 15 54 0 21 6
45 14 52 7 8 17 43 21 77 4 35 11 58 15 51 4 -6 10 11 14 41 4 30 11 56 17 59
5 4 12 28 16 55 3 28 12 56 20 63 7 7 13 31 13 52 0 21 7 45 15 54 8 8 15 32
15 55 0 23 6 43 14 48 7 4 15 32 18 62 4 35 11 57 22 63 11 6 16 23 16 53 0
47 14 61 23 24z m1117 -599 c0 -11 -4 -20 -10 -20 -5 0 -10 9 -10 20 0 11 5
20 10 20 6 0 10 -9 10 -20z m-2684 -1505 c4 -9 19 -15 35 -15 19 0 29 -5 29
-15 0 -8 7 -15 15 -15 9 0 18 -6 21 -14 3 -8 17 -17 30 -20 17 -5 26 -16 31
-36 3 -17 12 -30 19 -30 33 0 3 -47 -40 -63 -9 -4 -15 -11 -12 -16 3 -5 -10
-12 -29 -15 -21 -4 -35 -13 -35 -21 0 -20 -19 -19 -26 0 -4 8 -12 15 -20 15
-8 0 -14 9 -14 20 0 13 -7 20 -20 20 -11 0 -20 4 -20 10 0 5 -18 14 -40 20
-21 6 -42 15 -45 20 -10 16 -62 12 -69 -5 -3 -8 -16 -15 -28 -15 -39 0 -68
-41 -68 -96 0 -62 9 -94 25 -94 8 0 21 -8 31 -17 9 -9 26 -19 38 -20 11 -2 24
-10 29 -18 4 -8 21 -15 36 -15 16 0 31 -7 35 -15 3 -9 18 -15 36 -15 20 0 30
-5 30 -15 0 -10 10 -15 30 -15 18 0 33 -6 36 -15 4 -8 17 -15 30 -15 14 0 27
-7 30 -15 4 -8 12 -15 20 -15 8 0 22 -9 31 -20 10 -11 23 -20 29 -20 7 0 15
-11 18 -25 4 -14 10 -23 15 -21 5 3 11 -12 15 -34 3 -22 11 -40 16 -40 6 0 10
-39 10 -94 0 -74 -3 -95 -15 -100 -9 -3 -15 -18 -15 -36 0 -20 -5 -30 -15 -30
-8 0 -15 -9 -15 -20 0 -11 -7 -20 -15 -20 -8 0 -15 -7 -15 -15 0 -8 -6 -15
-14 -15 -8 0 -16 -7 -20 -15 -3 -8 -12 -15 -21 -15 -8 0 -15 -7 -15 -15 0 -10
-10 -15 -28 -15 -16 0 -37 -7 -48 -15 -10 -8 -40 -15 -66 -15 -47 0 -78 -18
-78 -45 0 -7 -7 -15 -15 -19 -27 -10 -16 -26 25 -32 22 -4 37 -10 34 -15 -2
-5 6 -11 20 -15 19 -4 27 -15 32 -40 3 -19 10 -34 15 -34 5 0 9 -20 9 -45 0
-25 -4 -45 -10 -45 -5 0 -10 -8 -10 -19 0 -10 -19 -38 -42 -62 l-43 -44 -78 0
c-64 0 -80 3 -88 18 -6 9 -17 17 -24 17 -8 0 -15 7 -15 15 0 8 -7 15 -15 15
-8 0 -15 7 -15 15 0 8 6 15 14 15 7 0 19 7 26 15 7 9 29 15 51 15 28 0 39 -4
39 -15 0 -10 10 -15 30 -15 20 0 30 5 30 15 0 8 7 15 15 15 11 0 15 12 15 50
0 39 -4 50 -16 50 -8 0 -22 7 -30 15 -10 10 -35 15 -69 15 -49 0 -86 18 -57
28 7 2 12 10 12 18 0 8 6 14 14 14 8 0 17 12 21 27 3 15 13 32 22 38 22 17 8
35 -28 35 -19 0 -29 5 -29 15 0 10 -10 15 -34 15 -19 0 -41 7 -50 15 -8 8 -19
15 -25 15 -5 0 -14 6 -18 13 -4 7 -20 18 -35 24 -16 7 -28 17 -28 23 0 5 -7
10 -15 10 -10 0 -15 10 -15 30 0 19 -5 30 -14 30 -8 0 -17 15 -20 35 -4 19
-11 35 -16 35 -6 0 -10 14 -10 30 0 24 4 30 21 30 12 0 27 7 33 14 7 10 34 16
74 18 71 3 92 -11 92 -64 0 -18 5 -28 15 -28 8 0 15 -7 15 -15 0 -9 10 -19 23
-24 12 -5 21 -12 19 -17 -1 -5 18 -10 43 -12 31 -2 45 -8 45 -18 0 -11 14 -14
60 -14 47 0 60 3 60 15 0 10 10 15 30 15 18 0 33 6 36 15 4 8 12 15 19 15 7 0
16 16 19 35 4 19 11 35 16 35 16 0 11 57 -5 64 -8 3 -15 16 -15 30 0 16 -7 27
-20 31 -11 4 -18 10 -15 15 6 9 -18 20 -46 20 -10 0 -19 7 -19 15 0 10 -10 15
-30 15 -19 0 -30 5 -30 14 0 8 -16 15 -41 19 -23 3 -45 10 -48 15 -3 5 -19 12
-35 16 -15 4 -35 14 -43 21 -8 8 -23 15 -34 15 -10 0 -19 7 -19 15 0 8 -9 15
-20 15 -11 0 -20 7 -20 15 0 8 -7 15 -15 15 -8 0 -15 7 -15 15 0 8 -7 15 -15
15 -8 0 -15 7 -15 15 0 8 -7 15 -15 15 -10 0 -15 11 -15 35 0 24 -5 35 -15 35
-12 0 -15 14 -15 65 0 51 3 65 15 65 8 0 14 3 14 8 -1 4 -1 24 0 45 1 26 6 37
16 37 8 0 15 8 15 19 0 25 42 69 74 77 14 3 26 12 26 20 0 9 11 14 30 14 20 0
30 5 30 15 0 13 22 15 140 15 116 0 142 -3 146 -15z m1219 -17 c3 -18 5 -60 3
-93 l-3 -60 -272 -3 -273 -2 0 -145 0 -145 255 0 255 0 0 -95 0 -95 -255 0
-255 0 0 -145 0 -145 275 0 276 0 -3 -92 -3 -93 -372 -3 c-327 -2 -373 0 -373
13 0 8 -4 15 -9 15 -6 0 -10 209 -9 535 0 444 2 536 14 546 8 6 14 18 14 25 0
12 62 14 365 14 l364 0 6 -32z m445 17 c0 -8 6 -15 14 -15 8 0 17 -14 21 -30
4 -17 10 -28 15 -25 5 3 12 -5 16 -17 3 -12 13 -28 20 -36 8 -7 14 -22 14 -33
0 -10 7 -19 15 -19 8 0 15 -9 15 -20 0 -11 7 -20 15 -20 9 0 15 -9 15 -25 0
-14 6 -28 14 -31 8 -3 18 -18 21 -34 3 -16 13 -31 21 -34 8 -3 14 -12 14 -21
0 -8 6 -15 13 -15 8 0 7 -4 -3 -10 -13 -8 -12 -10 3 -10 10 0 17 -8 17 -20 0
-11 7 -20 15 -20 10 0 15 -10 15 -30 0 -20 5 -30 15 -30 8 0 15 -7 15 -15 0
-9 7 -18 15 -21 8 -4 15 -16 15 -28 0 -12 9 -29 20 -39 11 -9 20 -26 20 -37 0
-11 7 -20 15 -20 8 0 15 -9 15 -20 0 -11 6 -20 13 -20 7 0 13 -10 14 -21 1
-12 6 -26 12 -32 28 -28 31 11 31 369 0 236 4 364 10 364 6 0 10 7 10 15 0 13
14 15 83 13 l82 -3 3 -572 2 -573 -100 0 c-82 0 -100 3 -100 15 0 8 -4 15 -9
15 -5 0 -12 14 -16 30 -4 17 -13 30 -21 30 -8 0 -14 5 -14 12 0 22 -35 87 -47
88 -6 0 -14 14 -18 30 -4 17 -11 30 -16 30 -5 0 -13 8 -16 18 -4 9 -13 23 -20
30 -7 7 -13 22 -13 33 0 10 -7 19 -15 19 -10 0 -15 10 -15 30 0 20 -5 30 -15
30 -8 0 -15 9 -15 20 0 11 -6 20 -14 20 -8 0 -17 14 -21 30 -4 17 -10 30 -15
30 -5 0 -11 13 -15 29 -3 16 -13 32 -21 35 -8 3 -14 12 -14 20 0 7 -7 16 -15
20 -8 3 -15 17 -15 31 0 16 -6 25 -15 25 -10 0 -15 10 -15 31 0 22 -5 32 -20
36 -13 3 -20 14 -20 29 0 27 -15 32 -24 8 -3 -9 -6 -186 -6 -395 l0 -379 -95
0 -95 0 0 568 c0 313 3 572 7 575 3 4 46 7 95 7 72 0 88 -3 88 -15z m1614 0
c11 -8 33 -15 49 -15 15 0 35 -7 43 -15 9 -8 24 -15 35 -15 10 0 19 -6 19 -14
0 -8 14 -17 30 -21 17 -4 27 -11 24 -16 -3 -6 3 -13 14 -16 11 -3 23 -16 26
-29 4 -13 12 -23 18 -21 7 1 14 -8 16 -20 2 -13 10 -23 18 -23 8 0 14 -9 14
-19 0 -11 6 -26 14 -33 7 -8 17 -30 21 -49 4 -19 12 -37 18 -41 5 -3 12 -52
15 -107 3 -56 9 -104 13 -107 5 -3 9 -14 9 -25 0 -11 -4 -18 -9 -15 -4 3 -11
-36 -14 -86 -3 -50 -10 -94 -16 -97 -5 -3 -13 -20 -17 -36 -4 -16 -13 -36 -21
-43 -7 -7 -13 -22 -13 -33 0 -10 -7 -19 -15 -19 -9 0 -15 -10 -15 -26 0 -17
-6 -28 -20 -31 -11 -3 -20 -12 -20 -19 0 -8 -7 -14 -15 -14 -8 0 -15 -7 -15
-15 0 -8 -7 -15 -15 -15 -8 0 -23 -9 -32 -20 -10 -11 -23 -20 -29 -20 -7 0
-14 -5 -16 -10 -2 -6 -21 -13 -43 -17 -22 -3 -44 -12 -48 -20 -12 -20 -353
-19 -361 2 -3 10 -19 15 -46 15 -29 0 -40 4 -40 15 0 8 -9 15 -20 15 -11 0
-29 9 -40 20 -11 11 -24 20 -30 20 -5 0 -10 7 -10 15 0 8 -7 15 -15 15 -8 0
-15 7 -15 15 0 8 -7 15 -15 15 -8 0 -15 6 -15 13 0 7 -9 20 -20 30 -11 9 -20
24 -20 33 0 8 -7 22 -15 30 -8 9 -15 24 -15 35 0 10 -7 19 -15 19 -12 0 -15
13 -15 61 0 40 -5 65 -15 75 -11 12 -15 40 -15 119 0 79 4 107 15 119 10 9 15
34 15 71 0 40 4 57 15 61 8 4 15 14 15 24 0 10 6 25 14 32 7 8 17 24 20 36 4
12 11 20 16 17 5 -3 11 8 15 25 4 16 13 30 21 30 8 0 14 7 14 15 0 8 7 15 15
15 8 0 15 7 15 15 0 8 7 15 15 15 9 0 18 7 21 15 4 8 10 12 15 9 5 -3 9 0 9 5
0 6 7 11 16 11 8 0 22 7 30 15 9 8 31 15 50 15 24 0 34 5 34 15 0 22 305 22
334 0z m800 9 c14 -5 16 -57 16 -480 l0 -474 240 0 240 0 0 -95 0 -95 -331 0
c-304 0 -333 1 -345 18 -11 14 -13 124 -14 560 0 355 3 542 10 542 6 0 10 7
10 15 0 12 15 15 79 15 44 0 86 -3 95 -6z m1268 -231 l3 -238 253 -3 252 -2 0
240 0 240 94 0 c89 0 94 -1 100 -22 3 -13 6 -272 6 -575 l0 -553 -100 0 -100
0 0 240 0 240 -255 0 -255 0 0 -240 0 -240 -95 0 -95 0 0 575 0 575 95 0 95 0
2 -237z m1638 226 c0 -5 5 -7 10 -4 6 3 10 1 10 -4 0 -6 15 -11 34 -11 21 0
36 -6 40 -15 3 -8 17 -15 31 -15 15 0 25 -6 25 -14 0 -8 14 -17 30 -21 17 -4
30 -13 30 -21 0 -8 6 -14 14 -14 7 0 16 -9 19 -21 3 -12 10 -18 16 -15 5 3 12
-7 16 -24 4 -16 13 -30 21 -30 9 0 14 -11 14 -30 0 -20 5 -30 15 -30 10 0 15
-10 15 -30 0 -17 6 -33 14 -36 10 -4 16 -34 21 -100 4 -52 11 -94 16 -94 12 0
12 -97 -1 -102 -5 -1 -13 -37 -16 -78 -4 -41 -13 -81 -21 -88 -7 -7 -13 -26
-13 -42 0 -16 -5 -32 -12 -36 -7 -5 -8 -3 -3 6 5 9 4 11 -3 6 -7 -4 -12 -18
-12 -32 0 -14 -6 -24 -14 -24 -8 0 -17 -13 -21 -30 -4 -16 -13 -30 -21 -30 -8
0 -14 -7 -14 -15 0 -8 -7 -15 -15 -15 -8 0 -15 -7 -15 -15 0 -8 -7 -15 -15
-15 -8 0 -15 -6 -15 -14 0 -8 -14 -18 -32 -21 -17 -4 -38 -14 -46 -21 -7 -8
-27 -14 -43 -14 -17 0 -32 -6 -35 -15 -5 -13 -35 -15 -179 -15 -141 0 -175 3
-185 15 -7 8 -28 15 -46 15 -22 0 -34 5 -34 14 0 8 -15 17 -35 20 -21 4 -35
13 -35 21 0 8 -7 15 -15 15 -8 0 -15 7 -15 15 0 8 -7 15 -15 15 -8 0 -15 7
-15 15 0 8 -7 15 -15 15 -8 0 -15 7 -15 15 0 8 -7 15 -15 15 -8 0 -17 14 -21
35 -3 20 -12 35 -20 35 -9 0 -14 11 -14 30 0 20 -5 30 -15 30 -12 0 -15 16
-16 78 0 42 -3 71 -6 65 -15 -38 -23 1 -23 113 0 108 2 125 15 120 12 -4 15 6
15 64 0 56 3 70 15 70 10 0 15 10 15 30 0 20 5 30 15 30 8 0 15 9 15 20 0 11
6 20 14 20 8 0 17 14 21 30 4 17 13 30 21 30 8 0 14 7 14 15 0 8 7 15 15 15 8
0 15 6 15 14 0 8 13 17 29 21 16 3 32 13 35 21 3 8 10 14 16 14 6 0 18 7 26
15 9 8 31 15 50 15 24 0 34 5 34 15 0 13 25 15 165 15 109 0 165 -4 165 -11z
m1250 -4 c7 -8 28 -15 46 -15 24 0 34 -5 34 -15 0 -8 8 -15 18 -15 11 0 29 -9
42 -20 13 -11 27 -20 32 -20 4 0 8 -7 8 -15 0 -8 7 -15 15 -15 8 0 15 -7 15
-15 0 -8 7 -15 15 -15 8 0 15 -7 15 -15 0 -8 6 -15 14 -15 8 0 17 -13 21 -29
3 -16 13 -32 21 -35 19 -7 19 -66 0 -66 -8 0 -16 -7 -20 -15 -3 -8 -17 -15
-31 -15 -15 0 -33 -7 -41 -15 -16 -16 -52 -20 -70 -7 -6 4 -14 24 -18 45 -4
22 -13 37 -21 37 -8 0 -15 7 -15 15 0 8 -7 15 -15 15 -8 0 -15 6 -15 14 0 8
-19 18 -45 25 -25 6 -45 16 -45 21 0 6 -48 10 -122 10 -103 0 -128 -3 -165
-21 -24 -11 -43 -24 -43 -29 0 -4 -11 -11 -25 -14 -15 -4 -27 -16 -31 -30 -3
-14 -12 -27 -20 -30 -8 -3 -14 -12 -14 -21 0 -8 -6 -15 -14 -15 -9 0 -15 -18
-18 -57 -3 -31 -10 -59 -16 -61 -8 -2 -12 -37 -12 -102 0 -65 4 -100 12 -102
6 -2 13 -30 16 -62 3 -36 10 -60 18 -63 8 -3 14 -12 14 -19 0 -8 6 -17 14 -20
8 -3 17 -16 20 -30 4 -13 13 -24 21 -24 8 0 15 -8 15 -17 0 -14 2 -15 9 -5 7
11 9 11 14 -2 4 -9 11 -16 17 -16 6 0 18 -7 26 -15 12 -12 43 -15 142 -15 129
0 176 6 167 20 -3 4 11 11 30 14 21 4 35 13 35 21 0 8 7 15 15 15 8 0 15 7 15
15 0 8 9 23 20 32 11 10 20 24 20 31 0 19 25 42 45 42 9 0 23 -7 31 -15 9 -8
29 -15 45 -15 17 0 32 -6 35 -15 4 -8 13 -15 21 -15 21 0 11 -80 -11 -92 -9
-5 -16 -16 -16 -23 0 -8 -7 -15 -15 -15 -8 0 -15 -7 -15 -15 0 -8 -7 -15 -15
-15 -8 0 -15 -7 -15 -15 0 -8 -7 -15 -15 -15 -8 0 -15 -7 -15 -15 0 -8 -7 -15
-15 -15 -8 0 -15 -7 -15 -15 0 -9 -13 -18 -31 -22 -17 -3 -33 -12 -36 -19 -3
-8 -18 -14 -34 -14 -19 0 -29 -5 -29 -15 0 -13 -28 -15 -190 -15 -162 0 -190
2 -190 15 0 10 -11 15 -35 15 -24 0 -35 5 -35 15 0 9 -9 15 -25 15 -14 0 -28
6 -31 14 -3 8 -15 16 -26 19 -12 3 -17 10 -13 17 4 7 -2 14 -14 17 -12 3 -21
12 -21 19 0 8 -7 14 -15 14 -8 0 -15 7 -15 15 0 8 -7 15 -15 15 -8 0 -15 9
-15 20 0 11 -6 20 -14 20 -10 0 -16 14 -18 43 -2 24 -8 41 -14 40 -7 -1 -14
17 -17 44 -2 25 -9 48 -14 52 -23 14 -24 339 -2 325 5 -2 11 18 15 45 4 28 12
52 20 55 8 3 14 19 14 36 0 20 5 30 15 30 10 0 15 10 15 30 0 20 5 30 15 30 8
0 15 7 15 15 0 8 7 15 15 15 8 0 15 6 15 14 0 7 9 16 20 19 11 3 20 12 20 21
0 9 5 16 11 16 6 0 17 7 25 15 9 8 24 15 34 15 10 0 20 7 24 15 3 10 19 15 46
15 27 0 43 5 46 15 5 12 33 15 164 15 128 0 160 -3 170 -15z m980 5 c0 -5 7
-10 15 -10 10 0 15 -10 15 -34 0 -21 6 -36 15 -40 9 -3 15 -18 15 -36 0 -17 6
-33 14 -36 7 -3 16 -23 20 -45 3 -21 10 -39 16 -39 5 0 12 -17 16 -37 4 -21
13 -44 21 -51 7 -7 13 -26 13 -42 0 -16 7 -30 15 -34 9 -3 15 -18 15 -36 0
-18 6 -33 15 -36 10 -4 15 -20 15 -45 0 -23 6 -41 15 -46 14 -8 23 -36 24 -76
1 -9 7 -16 14 -15 7 2 13 -10 15 -27 2 -16 10 -34 18 -38 8 -4 14 -20 14 -36
0 -15 7 -36 15 -47 8 -10 15 -31 15 -45 0 -15 7 -29 15 -33 9 -3 15 -18 15
-36 0 -22 5 -30 18 -31 9 0 12 -3 5 -5 -8 -4 -8 -12 3 -32 8 -15 14 -34 14
-44 0 -9 5 -18 11 -20 5 -2 13 -22 16 -46 l6 -42 -94 0 c-110 0 -125 10 -136
85 -3 24 -12 46 -19 49 -8 3 -14 20 -14 41 0 26 -7 43 -26 60 -27 25 -29 25
-218 25 -105 0 -201 -3 -213 -6 -12 -3 -24 -17 -27 -30 -4 -14 -10 -22 -15
-20 -5 3 -11 -18 -13 -46 -3 -29 -11 -54 -17 -56 -6 -2 -11 -17 -11 -33 0 -17
-6 -32 -15 -35 -8 -4 -15 -12 -15 -20 0 -11 -21 -14 -100 -14 l-100 0 0 34 c0
19 6 41 13 48 8 7 17 27 21 43 4 16 12 33 18 36 5 3 12 25 15 48 4 25 11 41
19 41 9 0 14 12 14 35 0 24 5 35 15 35 10 0 15 10 15 34 0 19 6 41 14 48 7 8
17 29 21 46 3 18 10 32 15 32 5 0 12 20 15 44 4 25 13 47 21 50 8 3 14 17 14
31 0 15 7 33 15 41 8 9 15 31 15 50 0 24 5 34 15 34 10 0 15 11 15 35 0 23 5
35 14 35 8 0 15 16 19 42 3 23 13 45 21 50 9 5 16 22 16 37 0 16 7 31 15 35
10 3 15 19 15 46 0 29 4 40 15 40 10 0 15 11 15 35 0 24 5 35 15 35 8 0 15 7
15 15 0 12 14 15 65 15 37 0 65 -4 65 -10z m-3072 -1657 c3 -26 0 -33 -15 -33
-15 0 -16 -2 -3 -10 12 -8 11 -10 -7 -10 -28 0 -63 33 -63 59 0 21 20 30 60
28 21 -2 26 -8 28 -34z m-4158 -138 c0 -8 5 -15 11 -15 6 0 22 -10 35 -22 19
-18 24 -33 24 -73 0 -64 -9 -95 -26 -95 -8 0 -14 -7 -14 -15 0 -8 -7 -15 -15
-15 -10 0 -15 -10 -15 -30 0 -18 6 -33 15 -36 8 -4 15 -12 15 -20 0 -7 8 -18
18 -23 13 -8 14 -11 2 -11 -12 0 -11 -3 3 -11 9 -5 17 -17 17 -24 0 -8 7 -15
15 -15 10 0 15 -10 15 -30 0 -29 -2 -30 -45 -30 -42 0 -44 1 -51 35 -3 19 -11
33 -18 32 -6 -1 -12 13 -14 31 -2 19 -9 32 -17 32 -7 0 -16 14 -20 30 -4 17
-11 27 -16 24 -6 -3 -13 4 -16 16 -4 16 -12 20 -32 18 l-26 -3 -3 -107 -3
-108 -44 0 -45 0 0 240 0 240 125 0 c104 0 125 -2 125 -15z m700 -15 l0 -30
-105 0 c-126 0 -145 -11 -141 -82 l2 -43 110 -5 109 -5 3 -28 c2 -19 -2 -29
-15 -34 -10 -4 -20 -10 -24 -15 -3 -4 -21 -3 -39 2 -19 6 -46 10 -60 9 -23 0
-24 -1 -5 -10 17 -8 15 -9 -9 -5 -47 6 -76 -19 -76 -65 0 -28 4 -39 15 -39 9
0 18 -6 21 -14 4 -10 25 -14 70 -15 41 0 63 3 59 9 -3 6 1 10 10 10 9 0 13 -4
10 -10 -4 -6 7 -10 27 -10 26 0 30 3 18 11 -13 9 -13 10 0 6 10 -2 16 -19 18
-45 l3 -42 -155 0 -155 0 -3 43 c-2 23 -2 131 0 240 l3 197 154 0 155 0 0 -30z
m360 -65 l0 -95 110 0 110 0 0 95 0 95 50 0 50 0 0 -241 0 -240 -47 3 -48 3
-3 98 c-2 77 -6 97 -17 97 -8 0 -15 5 -15 10 0 6 -16 10 -35 10 -19 0 -35 -4
-35 -10 0 -5 -17 -10 -37 -10 -82 0 -83 -1 -83 -106 l0 -94 -35 0 -35 0 0 240
0 240 35 0 35 0 0 -95z m884 80 c8 -8 19 -15 25 -15 5 0 13 -16 17 -35 3 -19
10 -35 15 -35 13 0 11 -39 -3 -55 -40 -45 -49 -65 -28 -65 6 0 10 -6 10 -13 0
-7 9 -20 20 -30 16 -13 20 -29 20 -79 0 -53 -4 -67 -24 -85 -13 -13 -31 -23
-40 -23 -10 0 -15 -4 -11 -9 9 -15 -51 -22 -155 -19 l-95 3 -3 238 -2 237 119
0 c93 0 123 -3 135 -15z m676 -15 c0 -34 4 -33 -118 -30 -110 2 -132 -11 -132
-80 l0 -50 111 0 110 0 -3 -37 c-2 -21 -8 -38 -15 -38 -6 0 -15 -3 -19 -7 -12
-13 -62 -9 -68 5 -5 10 -7 10 -12 0 -7 -16 -44 -17 -44 -1 0 6 -7 4 -18 -5
-10 -10 -24 -17 -30 -17 -7 0 -12 -17 -12 -45 0 -43 1 -44 35 -51 19 -3 35
-10 35 -15 0 -14 28 -11 34 4 5 10 7 10 12 0 7 -15 44 -17 44 -3 0 14 31 13
63 -2 21 -10 27 -20 27 -46 l0 -33 -157 3 -158 3 -3 225 c-1 123 0 230 2 237
4 10 44 13 161 13 l155 0 0 -30z m537 11 c9 -11 20 -18 25 -15 4 3 11 -3 15
-13 3 -10 12 -22 20 -26 20 -12 18 -117 -2 -117 -8 0 -15 -7 -15 -15 0 -8 -7
-15 -15 -15 -8 0 -15 -7 -15 -15 0 -8 -7 -15 -15 -15 -8 0 -15 -9 -15 -19 0
-10 7 -21 15 -25 8 -3 15 -17 15 -31 0 -16 6 -25 15 -25 8 0 15 -9 15 -20 0
-11 7 -20 15 -20 9 0 15 -9 15 -25 0 -14 7 -28 15 -31 8 -4 15 -12 15 -20 0
-10 -13 -14 -45 -14 -33 0 -45 4 -45 15 0 8 -7 15 -15 15 -8 0 -15 9 -15 19 0
11 -7 26 -15 34 -7 8 -17 26 -20 40 -4 14 -13 28 -21 31 -8 3 -14 15 -14 26 0
11 -7 20 -15 20 -8 0 -15 5 -15 10 0 6 -7 10 -15 10 -8 0 -15 -7 -15 -15 0 -8
-7 -15 -15 -15 -12 0 -15 -17 -15 -95 l0 -95 -35 0 -35 0 0 240 0 240 115 0
c102 0 117 -2 132 -19z m453 -163 c0 -208 3 -228 34 -227 20 0 20 1 1 9 -15 7
-10 9 23 9 23 1 42 -3 42 -9 0 -5 7 -10 15 -10 8 0 15 5 15 10 0 6 13 10 29
10 31 0 41 -14 41 -61 l0 -29 -145 0 -145 0 0 240 0 240 45 0 45 0 0 -182z
m550 -58 l0 -240 -45 0 -45 0 0 240 0 240 45 0 45 0 0 -240z m382 131 c1 -60
6 -113 10 -117 9 -8 88 70 88 86 0 6 4 10 9 10 13 0 91 76 91 89 0 6 7 11 15
11 8 0 15 7 15 15 0 11 12 15 50 15 38 0 50 -4 50 -15 0 -9 -7 -18 -16 -22
-11 -4 -12 -8 -4 -13 8 -5 2 -10 -14 -14 -15 -4 -24 -11 -21 -16 3 -5 -4 -11
-15 -15 -11 -4 -18 -10 -15 -15 3 -4 -2 -10 -10 -14 -8 -3 -15 -12 -15 -21 0
-8 -5 -14 -12 -12 -17 3 -26 -54 -13 -80 7 -13 15 -20 18 -16 4 3 7 2 7 -4 0
-5 9 -20 20 -33 11 -13 20 -31 20 -42 0 -10 7 -18 15 -18 8 0 15 -7 15 -15 0
-9 6 -18 14 -21 8 -3 18 -19 21 -35 4 -15 12 -27 18 -26 7 1 12 -5 12 -13 0
-11 -13 -16 -47 -18 -38 -2 -48 0 -48 12 0 9 -7 16 -15 16 -8 0 -15 9 -15 20
0 11 -9 28 -20 37 -11 10 -20 23 -20 30 0 7 -4 13 -9 13 -5 0 -12 14 -16 30
-4 17 -13 30 -21 30 -8 0 -14 6 -14 14 0 8 -4 17 -9 20 -11 7 -61 -36 -61 -52
0 -7 -7 -12 -15 -12 -8 0 -15 -6 -15 -14 0 -8 -7 -16 -15 -20 -8 -3 -15 -9
-14 -13 1 -4 1 -32 0 -60 -1 -51 -2 -53 -30 -53 -22 0 -30 6 -34 23 -7 31 -9
436 -2 448 4 5 19 9 35 9 l28 0 4 -109z m-184 -727 c16 -5 22 -14 22 -35 0
-19 -5 -29 -15 -29 -8 0 -15 -4 -15 -10 0 -5 -13 -10 -30 -10 -28 0 -30 2 -30
38 0 53 11 61 68 46z m-3908 -189 c0 -23 5 -35 14 -35 8 0 15 -16 19 -41 3
-23 10 -45 15 -48 5 -3 12 -19 16 -36 4 -16 12 -33 18 -36 5 -3 12 -25 15 -48
4 -25 11 -41 19 -41 9 0 14 -12 14 -35 0 -22 5 -35 13 -35 9 0 14 -16 16 -45
2 -43 1 -45 -26 -45 -33 0 -61 28 -70 71 l-5 29 -93 0 c-116 0 -125 -3 -125
-46 0 -24 -5 -34 -15 -34 -8 0 -15 -4 -15 -10 0 -5 -16 -10 -36 -10 l-37 0 6
42 c3 23 13 45 21 50 9 5 16 22 16 38 0 20 5 30 15 30 11 0 15 12 15 45 0 33
4 45 15 45 10 0 15 10 15 30 0 16 6 33 13 37 8 4 17 26 20 48 4 22 11 41 16
43 6 2 13 19 17 38 6 33 8 34 50 34 44 0 44 0 44 -35z m510 -80 c0 -85 3 -115
13 -115 15 0 57 44 57 59 0 6 7 11 15 11 8 0 15 7 15 15 0 8 7 15 15 15 8 0
15 7 15 15 0 8 7 15 15 15 8 0 15 7 15 15 0 8 7 15 15 15 8 0 15 6 15 13 1 27
47 57 89 57 34 0 41 -3 41 -20 0 -11 -7 -20 -15 -20 -8 0 -15 -7 -15 -15 0 -8
-7 -15 -15 -15 -8 0 -15 -7 -15 -15 0 -8 -7 -15 -15 -15 -8 0 -15 -7 -15 -15
0 -8 -6 -15 -14 -15 -7 0 -16 -9 -19 -20 -3 -11 -11 -19 -19 -18 -8 2 -14 -8
-16 -24 -2 -20 1 -28 12 -28 9 0 16 -9 16 -20 0 -11 6 -20 14 -20 8 0 17 -13
21 -30 4 -16 13 -30 21 -30 8 0 14 -6 14 -14 0 -8 7 -16 15 -20 8 -3 15 -17
15 -31 0 -16 6 -25 15 -25 8 0 15 -9 15 -20 0 -11 7 -20 15 -20 8 0 15 -7 15
-15 0 -11 -12 -15 -50 -15 -28 0 -50 5 -50 10 0 6 -5 16 -10 23 -41 48 -50 62
-50 72 0 7 -7 15 -15 19 -8 3 -15 12 -15 20 0 7 -7 16 -15 20 -8 3 -15 17 -15
31 0 21 -5 25 -30 25 -20 0 -30 -5 -30 -15 0 -8 -7 -15 -15 -15 -8 0 -15 -7
-15 -15 0 -8 -6 -15 -14 -15 -18 0 -26 -31 -26 -102 l0 -58 -45 0 -45 0 0 233
c0 129 3 237 7 240 3 4 24 7 45 7 l38 0 0 -115z m816 107 c6 -4 14 -25 17 -46
4 -22 11 -42 17 -46 6 -4 14 -26 19 -51 5 -24 10 -37 11 -29 2 23 18 -20 19
-52 1 -18 6 -28 16 -28 10 0 15 -11 15 -35 0 -19 5 -35 11 -35 5 0 7 -4 4 -10
-3 -5 -1 -10 4 -10 6 0 11 -11 11 -24 0 -13 7 -29 15 -36 8 -7 15 -25 15 -41
0 -28 -2 -29 -45 -29 l-45 0 0 45 c0 42 -2 44 -32 50 -18 3 -69 5 -113 3 l-80
-3 -3 -32 c-2 -21 -9 -33 -18 -33 -8 0 -14 -7 -14 -15 0 -10 -10 -15 -32 -15
-41 0 -67 14 -44 23 10 4 16 19 16 42 0 24 4 35 15 35 11 0 15 12 15 45 0 33
4 45 15 45 10 0 15 10 15 30 0 17 6 33 14 36 7 3 17 23 20 46 4 22 13 47 21
55 8 8 15 23 15 34 0 11 7 27 15 35 8 9 15 24 15 35 0 15 7 19 33 19 17 0 37
-4 43 -8z m712 -9 c11 -10 32 -27 46 -37 14 -10 26 -25 26 -32 0 -8 6 -14 14
-14 9 0 15 -16 19 -47 3 -26 10 -49 16 -51 6 -2 11 -16 11 -32 0 -16 -5 -30
-11 -32 -6 -2 -13 -25 -16 -51 -3 -26 -10 -47 -15 -47 -5 0 -6 -4 -3 -10 3 -5
1 -10 -4 -10 -6 0 -11 -7 -11 -15 0 -9 -8 -19 -17 -22 -10 -4 -24 -13 -31 -20
-7 -7 -22 -13 -33 -13 -10 0 -19 -7 -19 -15 0 -23 -235 -22 -244 1 -3 9 -6
114 -6 234 0 165 3 220 13 223 6 3 64 6 128 6 97 1 119 -2 137 -16z m710 -15
l-3 -33 -111 -5 -111 -5 1 -60 1 -60 106 -3 c94 -2 107 -5 112 -21 2 -10 1
-25 -4 -32 -5 -8 -9 -9 -9 -4 0 6 -6 2 -14 -7 -13 -17 -40 -18 -123 -4 -18 3
-33 2 -33 -3 0 -5 -9 -11 -20 -14 -16 -4 -20 -13 -20 -44 0 -61 9 -83 36 -83
12 0 26 5 29 10 3 6 26 10 50 10 24 0 47 -4 50 -10 3 -5 19 -10 36 -10 27 0
29 -3 29 -35 l0 -35 -160 0 -160 0 0 240 0 240 161 0 160 0 -3 -32z m417 0 c4
-17 14 -38 21 -46 8 -7 14 -29 14 -48 0 -24 5 -34 15 -34 10 0 15 -11 15 -35
0 -24 5 -35 15 -35 11 0 15 -12 15 -45 0 -33 4 -45 15 -45 8 0 15 7 15 15 0 8
6 15 14 15 14 0 26 29 26 66 0 12 7 24 15 28 8 3 15 18 15 33 0 15 7 37 15 47
8 11 15 33 15 48 0 16 7 31 15 34 8 4 15 12 15 20 0 10 14 14 50 14 l50 0 1
-37 c0 -21 3 -47 6 -58 13 -51 15 -95 3 -95 -9 0 -11 -21 -10 -72 2 -40 2
-106 1 -145 l-1 -73 -35 0 -35 0 0 160 c0 136 -2 160 -15 160 -10 0 -15 -11
-15 -35 0 -24 -5 -35 -15 -35 -10 0 -15 -10 -15 -34 0 -19 -7 -41 -15 -50 -8
-8 -15 -26 -15 -41 0 -14 -6 -28 -14 -31 -8 -3 -17 -16 -20 -30 -5 -19 -13
-24 -36 -24 -17 0 -30 5 -30 10 0 6 -7 10 -15 10 -10 0 -15 11 -15 35 0 23 -5
35 -14 35 -8 0 -15 16 -19 41 -3 23 -10 45 -15 48 -5 3 -13 21 -17 39 -3 18
-13 32 -21 32 -11 0 -14 -16 -14 -70 0 -38 -3 -70 -7 -70 -5 0 -9 -11 -9 -25
-1 -14 2 -25 7 -25 5 0 9 -20 9 -44 0 -48 -9 -56 -61 -56 l-29 0 0 240 0 240
59 0 c59 0 60 0 66 -32z m765 -210 l0 -238 -45 0 -45 0 0 240 0 241 45 -2 45
-3 0 -238z"/>
<path d="M6778 7188 c-2 -6 -30 -13 -62 -16 -36 -3 -60 -10 -63 -18 -3 -8 -11
-14 -19 -14 -8 0 -14 -7 -14 -15 0 -8 -7 -15 -15 -15 -8 0 -15 -6 -15 -13 0
-7 -14 -25 -31 -40 -24 -21 -33 -38 -37 -72 -2 -25 -8 -42 -12 -40 -4 3 -10
-5 -14 -18 -9 -34 -6 -289 4 -312 6 -14 9 -16 10 -5 1 8 6 -4 11 -28 4 -23 15
-50 24 -59 9 -9 23 -26 32 -39 8 -13 22 -24 29 -24 8 0 14 -7 14 -15 0 -8 7
-15 15 -15 8 0 15 -7 15 -15 0 -10 11 -15 35 -15 24 0 35 -5 35 -15 0 -12 17
-15 96 -15 81 0 95 2 90 15 -4 12 4 15 44 15 38 0 50 4 50 15 0 8 6 15 13 15
15 0 57 44 57 59 0 6 7 11 15 11 9 0 15 9 15 25 0 13 6 28 14 32 7 4 16 28 19
53 3 24 11 46 16 48 15 5 15 249 0 254 -6 2 -13 25 -16 51 -4 31 -10 47 -19
47 -9 0 -14 11 -14 30 0 20 -5 30 -15 30 -8 0 -15 6 -15 13 -1 29 -85 81 -152
92 -21 3 -38 10 -38 15 0 14 -98 12 -102 -2z"/>
<path d="M10456 7185 c-3 -10 -19 -15 -46 -15 -27 0 -43 -5 -46 -15 -4 -8 -12
-15 -20 -15 -8 0 -14 -7 -14 -15 0 -8 -7 -15 -15 -15 -8 0 -15 -6 -15 -13 0
-7 -14 -25 -31 -39 -20 -18 -32 -40 -36 -65 -3 -21 -12 -42 -20 -46 -10 -6
-13 -43 -13 -162 0 -119 3 -156 13 -162 8 -4 17 -26 20 -47 4 -22 13 -44 22
-48 8 -5 15 -16 15 -23 0 -8 7 -15 15 -15 8 0 14 -3 14 -7 -5 -29 4 -42 31
-48 17 -4 30 -13 30 -21 0 -9 11 -14 35 -14 24 0 35 -5 35 -15 0 -12 17 -15
95 -15 78 0 95 3 95 15 0 10 10 15 34 15 19 0 41 7 50 15 8 8 18 15 23 15 12
0 53 46 53 59 0 6 6 11 14 11 8 0 17 14 21 30 4 17 11 30 16 30 5 0 9 12 9 28
0 39 11 73 21 66 5 -3 9 52 9 125 0 82 -4 131 -11 133 -5 2 -13 24 -16 48 -3
25 -12 49 -19 53 -8 4 -14 19 -14 32 0 15 -6 25 -14 25 -7 0 -16 9 -19 20 -3
11 -12 20 -21 20 -9 0 -16 6 -16 13 -1 15 -69 47 -103 47 -14 0 -32 7 -41 15
-10 10 -35 15 -74 15 -44 0 -61 -4 -66 -15z"/>
<path d="M12855 7012 c-26 -6 -35 -20 -35 -58 0 -19 -6 -34 -15 -38 -8 -3 -15
-18 -15 -33 0 -15 -7 -37 -15 -47 -8 -11 -15 -35 -15 -53 0 -23 -5 -33 -15
-33 -9 0 -15 -9 -15 -22 0 -13 -3 -40 -6 -60 l-7 -38 147 0 146 0 0 25 c0 14
-4 25 -9 25 -5 0 -12 18 -16 39 -4 22 -13 42 -21 45 -9 3 -14 20 -14 46 0 29
-4 40 -15 40 -10 0 -15 10 -15 29 0 37 -10 62 -21 55 -5 -3 -9 13 -9 35 0 44
-5 50 -35 43z"/>
<path d="M5537 5503 c-4 -3 -7 -33 -7 -65 l0 -58 65 0 c51 0 65 3 65 15 0 8 7
15 15 15 10 0 15 10 15 30 0 20 -5 30 -15 30 -8 0 -15 6 -15 14 0 20 -106 37
-123 19z"/>
<path d="M7473 5503 c-21 -4 -23 -10 -23 -64 l0 -59 65 0 c37 0 65 4 65 10 0
6 7 10 15 10 11 0 15 11 15 40 0 28 -4 40 -14 40 -8 0 -16 5 -18 11 -4 12 -71
20 -105 12z"/>
<path d="M7457 5303 c-4 -3 -7 -31 -7 -61 0 -45 3 -55 20 -59 11 -3 20 -9 20
-14 0 -5 7 -9 15 -9 8 0 15 5 15 10 0 6 17 10 38 10 72 0 82 7 82 56 0 32 -4
44 -15 44 -8 0 -15 7 -15 15 0 12 -15 15 -73 15 -41 0 -77 -3 -80 -7z"/>
<path d="M8688 5503 c-14 -3 -18 -15 -18 -49 0 -63 18 -78 88 -75 61 2 72 10
72 56 0 56 -66 88 -142 68z"/>
<path d="M6076 4416 c-4 -19 -11 -36 -17 -38 -6 -2 -13 -22 -16 -44 -5 -38 -3
-42 21 -48 14 -3 37 -4 51 0 22 5 25 12 25 50 0 32 -4 44 -14 44 -9 0 -16 12
-18 32 -4 44 -24 46 -32 4z"/>
<path d="M7419 4421 c-6 -17 -15 -31 -20 -31 -5 0 -9 -13 -9 -28 0 -15 -5 -33
-12 -40 -19 -19 7 -37 56 -40 l46 -2 0 36 c0 19 -7 42 -15 50 -8 9 -15 28 -15
44 0 41 -19 47 -31 11z"/>
<path d="M7990 4363 c0 -181 3 -193 41 -193 16 0 29 5 29 10 0 6 19 10 43 10
31 0 48 6 65 24 12 13 22 28 22 34 0 6 5 12 12 14 8 3 14 33 16 81 4 66 2 77
-12 77 -11 0 -16 9 -16 29 0 25 -5 30 -35 35 -20 4 -33 11 -30 17 4 5 -22 9
-64 9 l-71 0 0 -147z"/>
</g>
</svg>
